<svg xmlns="http://www.w3.org/2000/svg" width="24" height="25" viewBox="0 0 24 25">
    <g fill="none" fill-rule="evenodd">
        <path fill="#5070A8" d="M23.871 12.841c0-.893-.077-1.753-.22-2.578H12.258v4.876h6.51c-.28 1.575-1.132 2.91-2.413 3.804v3.162h3.909c2.287-2.194 3.607-5.425 3.607-9.264z"/>
        <path fill="#2F9E4F" d="M12.243 25c3.27 0 6.011-1.105 8.015-2.991l-3.914-3.098c-1.085.741-2.472 1.179-4.101 1.179-3.155 0-5.825-2.172-6.777-5.09H1.419v3.199C3.412 22.234 7.508 25 12.243 25z"/>
        <path fill="#EFB529" d="M5.548 14.894a7.736 7.736 0 0 1-.386-2.394c0-.83.14-1.638.386-2.394V6.842h-4.11A12.84 12.84 0 0 0 .129 12.5c0 2.033.475 3.957 1.309 5.658l4.11-3.264z"/>
        <path fill="#D53E36" d="M12.45 4.91c1.77 0 3.36.623 4.609 1.846l3.457-3.54C18.428 1.223 15.7 0 12.45 0 7.738 0 3.661 2.767 1.677 6.801L5.705 10c.948-2.918 3.605-5.09 6.745-5.09z"/>
    </g>
</svg>
